<?xml version="1.0" standalone="no"?><!DOCTYPE svg PUBLIC "-//W3C//DTD SVG 1.1//EN" "http://www.w3.org/Graphics/SVG/1.1/DTD/svg11.dtd"><svg class="icon" width="64px" height="64.00px" viewBox="0 0 1024 1024" version="1.1" xmlns="http://www.w3.org/2000/svg"><path fill="#bfbfbf" d="M853.3 668.3c-16.6 0-30 13.4-30 30v64.9c0 16.5-12 30-26.7 30h-612c-14.7 0-26.7-13.5-26.7-30V260.8c0-16.5 12-30 26.7-30h612c14.7 0 26.7 13.5 26.7 30v64.9c0 16.6 13.4 30 30 30s30-13.4 30-30v-64.9c0-49.6-38.9-90-86.7-90h-612c-47.8 0-86.7 40.4-86.7 90v502.4c0 49.6 38.9 90 86.7 90h612c47.8 0 86.7-40.4 86.7-90v-64.9c0-16.5-13.4-30-30-30zM552 512a40 40 0 1 0 80 0 40 40 0 1 0-80 0z m296.3-139.6H515.8c-49.6 0-90 40.4-90 90v99.1c0 49.6 40.4 90 90 90h332.5c49.6 0 90-40.4 90-90v-99.1c0-49.6-40.3-90-90-90z m30 189.1c0 16.5-13.5 30-30 30H515.8c-16.5 0-30-13.5-30-30v-99.1c0-16.5 13.5-30 30-30h332.5c16.5 0 30 13.5 30 30v99.1z" /></svg>